<?xml version="1.0" encoding="utf-8"?>
<!-- Generator: Adobe Illustrator 24.2.1, SVG Export Plug-In . SVG Version: 6.00 Build 0)  -->
<svg version="1.1" id="Layer_1" xmlns="http://www.w3.org/2000/svg" xmlns:xlink="http://www.w3.org/1999/xlink" x="0px" y="0px"
	 width="173px" height="40px" viewBox="0 0 173 40" enable-background="new 0 0 173 40" xml:space="preserve">
<path fill="#33CC95" d="M35.2,6.1c-3.7-3.7-8.7-5.8-14-5.8s-10.3,2.1-14,5.8s-5.8,8.7-5.8,14s2.1,10.3,5.8,14s8.7,5.8,14,5.8
	s10.3-2.1,14-5.8s5.8-8.7,5.8-14S38.9,9.9,35.2,6.1z"/>
<g>
	<defs>
		<rect id="SVGID_1_" x="8.1" y="6.6" width="27.2" height="27.2"/>
	</defs>
	<clipPath id="SVGID_2_">
		<use xlink:href="#SVGID_1_"  overflow="visible"/>
	</clipPath>
	<g clip-path="url(#SVGID_2_)">
		<path fill="none" stroke="#FFFFFF" stroke-width="2" stroke-linecap="round" stroke-linejoin="round" d="M21.7,7.7v24.9"/>
		<path fill="none" stroke="#FFFFFF" stroke-width="2" stroke-linecap="round" stroke-linejoin="round" d="M27.4,12.2h-8.5
			c-1.1,0-2.1,0.4-2.8,1.2c-0.7,0.7-1.2,1.8-1.2,2.8c0,1.1,0.4,2.1,1.2,2.8c0.7,0.7,1.8,1.2,2.8,1.2h5.7c1.1,0,2.1,0.4,2.8,1.2
			c0.7,0.7,1.2,1.8,1.2,2.8c0,1.1-0.4,2.1-1.2,2.8c-0.7,0.7-1.8,1.2-2.8,1.2h-9.6"/>
	</g>
</g>
<g>
	<path fill="#FFFFFF" d="M67.2,21.1h-9.4c0.1,0.9,0.4,1.7,1,2.2c0.6,0.5,1.3,0.8,2.1,0.8c1.2,0,2.1-0.5,2.6-1.6h3.5
		c-0.4,1.2-1.1,2.3-2.1,3c-1.1,0.8-2.3,1.2-3.9,1.2c-1.2,0-2.3-0.3-3.3-0.8c-1-0.5-1.7-1.3-2.3-2.3c-0.5-1-0.8-2.2-0.8-3.5
		c0-1.3,0.3-2.5,0.8-3.5s1.3-1.8,2.3-2.3c1-0.5,2.1-0.8,3.4-0.8c1.2,0,2.3,0.3,3.3,0.8c1,0.5,1.7,1.3,2.2,2.2c0.5,1,0.8,2.1,0.8,3.3
		C67.2,20.3,67.2,20.7,67.2,21.1z M63.9,18.9c0-0.8-0.3-1.5-0.9-2c-0.6-0.5-1.3-0.8-2.2-0.8c-0.8,0-1.5,0.2-2,0.7s-0.9,1.2-1,2H63.9
		z"/>
	<path fill="#FFFFFF" d="M79.4,14.2c0.8,0.4,1.3,1.1,1.8,1.9c0.4,0.8,0.6,1.8,0.6,3v7.5h-3.2v-7.1c0-1-0.3-1.8-0.8-2.4
		c-0.5-0.5-1.2-0.8-2.1-0.8c-0.9,0-1.6,0.3-2.1,0.8c-0.5,0.5-0.8,1.3-0.8,2.4v7.1h-3.2V9.4h3.2v5.9c0.4-0.6,1-1,1.7-1.3
		c0.7-0.3,1.5-0.5,2.3-0.5C77.8,13.5,78.7,13.7,79.4,14.2z"/>
	<path fill="#FFFFFF" d="M110.2,15c1,1,1.4,2.3,1.4,4v7.5h-3.2v-7.1c0-1-0.3-1.8-0.8-2.3s-1.2-0.8-2.1-0.8s-1.6,0.3-2.1,0.8
		s-0.8,1.3-0.8,2.3v7.1h-3.2v-7.1c0-1-0.3-1.8-0.8-2.3c-0.5-0.5-1.2-0.8-2.1-0.8c-0.9,0-1.6,0.3-2.1,0.8c-0.5,0.5-0.8,1.3-0.8,2.3
		v7.1h-3.2V13.7h3.2v1.6c0.4-0.5,1-1,1.6-1.3c0.7-0.3,1.4-0.5,2.2-0.5c1,0,1.9,0.2,2.7,0.6c0.8,0.4,1.4,1,1.8,1.8
		c0.4-0.7,1-1.3,1.8-1.8s1.7-0.7,2.6-0.7C108,13.5,109.3,14,110.2,15z"/>
	<path fill="#FFFFFF" d="M117.1,25.9c-1-0.5-1.8-1.3-2.3-2.3s-0.8-2.2-0.8-3.5c0-1.3,0.3-2.5,0.9-3.5c0.6-1,1.4-1.8,2.4-2.3
		s2.1-0.8,3.4-0.8s2.4,0.3,3.4,0.8s1.8,1.3,2.4,2.3c0.6,1,0.9,2.2,0.9,3.5c0,1.3-0.3,2.5-0.9,3.5c-0.6,1-1.4,1.8-2.4,2.3
		c-1,0.5-2.1,0.8-3.4,0.8C119.2,26.8,118.1,26.5,117.1,25.9z M122.1,23.5c0.5-0.3,0.9-0.7,1.2-1.3c0.3-0.6,0.5-1.3,0.5-2.1
		c0-1.2-0.3-2.2-1-2.8c-0.6-0.7-1.4-1-2.4-1c-0.9,0-1.7,0.3-2.3,1c-0.6,0.7-0.9,1.6-0.9,2.8s0.3,2.2,0.9,2.8c0.6,0.7,1.4,1,2.3,1
		C121,23.9,121.6,23.8,122.1,23.5z"/>
	<path fill="#FFFFFF" d="M140.4,15c0.9,1,1.4,2.3,1.4,4v7.5h-3.2v-7.1c0-1-0.3-1.8-0.8-2.4c-0.5-0.5-1.2-0.8-2.1-0.8
		c-0.9,0-1.6,0.3-2.1,0.8c-0.5,0.5-0.8,1.3-0.8,2.4v7.1h-3.2V13.7h3.2v1.6c0.4-0.6,1-1,1.7-1.3s1.4-0.5,2.2-0.5
		C138.2,13.5,139.4,14,140.4,15z"/>
	<path fill="#FFFFFF" d="M156.7,21.1h-9.4c0.1,0.9,0.4,1.7,1,2.2c0.6,0.5,1.3,0.8,2.1,0.8c1.2,0,2.1-0.5,2.6-1.6h3.5
		c-0.4,1.2-1.1,2.3-2.1,3c-1.1,0.8-2.3,1.2-3.9,1.2c-1.2,0-2.3-0.3-3.3-0.8s-1.7-1.3-2.3-2.3s-0.8-2.2-0.8-3.5
		c0-1.3,0.3-2.5,0.8-3.5c0.5-1,1.3-1.8,2.3-2.3c1-0.5,2.1-0.8,3.4-0.8c1.2,0,2.3,0.3,3.3,0.8c1,0.5,1.7,1.3,2.2,2.2
		c0.5,1,0.8,2.1,0.8,3.3C156.8,20.3,156.8,20.7,156.7,21.1z M153.5,18.9c0-0.8-0.3-1.5-0.9-2c-0.6-0.5-1.3-0.8-2.2-0.8
		c-0.8,0-1.5,0.2-2,0.7c-0.5,0.5-0.9,1.2-1,2H153.5z"/>
	<path fill="#FFFFFF" d="M171.5,13.7l-8,18.9h-3.5l2.8-6.4l-5.1-12.5h3.6l3.3,9l3.4-9H171.5z"/>
</g>
</svg>
